# xmcd
#
# Track frame offsets:
#	150
#	14474
#	27985
#	41822
#	57883
#	73686
#	92646
#	110031
#	124431
#	141004
#	156915
#	168578
#	183584
#	196813
#	215804
#	229903
#	246890
#	262355
#
# Disc length: 3683 seconds
#
# Revision: 0
# Processed by: cddbd v1.5.2PL0 Copyright (c) Steve Scherf et al.
# Submitted via: EZCDAudioConverter 3.1.2.1
#
DISCID=1a0e6112
DTITLE=DJ Promotion CD Pool Polska 227
DYEAR=2018
DGENRE=
TTITLE0=Sławomir - Ty mała znów zarosłaś (Album Version)
TTITLE1=Łobuzy - Zbuntowany anioł (Radio Edit)
TTITLE2=Kukiz and Perverados - Wyspa Zielona (Album Version)
TTITLE3=Andrzej Piaseczny - Czekając na sobotę (Radio Edit)
TTITLE4=Lanberry - Nie ma mnie (Radio Edit)
TTITLE5=Retrospektakl - Wino (Radio Edit)
TTITLE6=Arek Kłusowski - Po tamtej stronie (Radio Edit)
TTITLE7=Sylwia Przybysz and Verba - Byłeś mój (Radio Mix)
TTITLE8=Grzegorz Hyży - Pech to nie grzech (Radio Mix)
TTITLE9=Kasia Kowalska - Teraz kiedy czuje (Album Version)
TTITLE10=Agnieszka Chylińska - Mam zły dzień (Album Mix)
TTITLE11=Patrycja Markowska i Grzegorz Markowski feat. sound'n'grace - Na szcz
TTITLE11=ycie (Radio Edit)
TTITLE12=Młynarski-Masecki i Jazz Camerata Varsoviensis - A ja sobie gram na g
TTITLE12=ramofonie (Album Mix)
TTITLE13=Bajm - Szklanka wody (Radio Mix)
TTITLE14=Sachiel - Ponad chmurami (Radio Edit)
TTITLE15=Martina M - Szaloną być (Radio Edit)
TTITLE16=Piotr Cugowski - Kto nie kochał (Radio Mix)
TTITLE17=Yankiel X - Hicior (Radio Mix)
EXTD=
EXTT0=
EXTT1=
EXTT2=
EXTT3=
EXTT4=
EXTT5=
EXTT6=
EXTT7=
EXTT8=
EXTT9=
EXTT10=
EXTT11=
EXTT12=
EXTT13=
EXTT14=
EXTT15=
EXTT16=
EXTT17=
PLAYORDER=
